<svg width="38" height="38" viewBox="0 0 38 38" fill="none" xmlns="http://www.w3.org/2000/svg">
<rect x="0.542969" y="0.714844" width="37" height="37" rx="18.5" fill="white"/>
<path d="M23.2005 15.2329C24.2797 16.3121 24.9477 17.7253 24.9477 19.2669C24.9477 22.4016 22.3269 24.9711 19.1665 24.9711C18.2158 24.9711 17.2908 24.7141 16.4429 24.2773L13.4366 25.0482L14.2332 22.0933C13.745 21.2454 13.4623 20.269 13.4623 19.2412C13.4623 16.1065 16.0318 13.5371 19.1665 13.5371C20.7082 13.5371 22.147 14.1537 23.2005 15.2329ZM19.1665 23.9947C21.7873 23.9947 23.9713 21.8621 23.9713 19.2669C23.9713 17.9822 23.4318 16.8003 22.5325 15.901C21.6332 15.0016 20.4512 14.5135 19.1922 14.5135C16.5713 14.5135 14.4387 16.6461 14.4387 19.2412C14.4387 20.1405 14.6957 21.0141 15.1582 21.785L15.2866 21.9648L14.7984 23.7121L16.597 23.2239L16.7512 23.3266C17.4963 23.7635 18.3186 23.9947 19.1665 23.9947ZM21.7873 20.4489C21.9158 20.526 22.0186 20.5516 22.0443 20.6287C22.0957 20.6801 22.0957 20.9628 21.9672 21.2968C21.8387 21.6308 21.2734 21.9391 21.0165 21.9648C20.554 22.0419 20.1943 22.0162 19.295 21.6051C17.8561 20.9885 16.9311 19.5496 16.854 19.4725C16.7769 19.3697 16.2887 18.7016 16.2887 17.9822C16.2887 17.2885 16.6484 16.9544 16.7769 16.8003C16.9054 16.6461 17.0595 16.6204 17.1623 16.6204C17.2394 16.6204 17.3422 16.6204 17.4193 16.6204C17.522 16.6204 17.6248 16.5947 17.7533 16.8773C17.8561 17.16 18.1644 17.8537 18.1901 17.9308C18.2158 18.0079 18.2415 18.085 18.1901 18.1878C17.9332 18.7273 17.6248 18.7016 17.779 18.9586C18.3443 19.9093 18.8838 20.2433 19.7318 20.6544C19.8602 20.7315 19.9373 20.7058 20.0401 20.6287C20.1172 20.526 20.3998 20.1919 20.4769 20.0635C20.5797 19.9093 20.6825 19.935 20.8109 19.9864C20.9394 20.0378 21.6332 20.3718 21.7873 20.4489Z" fill="#15284C"/>
</svg>
