<svg width="38" height="38" viewBox="0 0 38 38" fill="none" xmlns="http://www.w3.org/2000/svg">
<rect x="0.120605" y="0.714844" width="37" height="37" rx="18.5" fill="white"/>
<path d="M25.4529 15.9268C25.7612 17.0059 25.7612 19.3184 25.7612 19.3184C25.7612 19.3184 25.7612 21.6052 25.4529 22.7101C25.2987 23.3268 24.8105 23.7893 24.2195 23.9434C23.1147 24.2261 18.7466 24.2261 18.7466 24.2261C18.7466 24.2261 14.3529 24.2261 13.248 23.9434C12.657 23.7893 12.1688 23.3268 12.0147 22.7101C11.7063 21.6052 11.7063 19.3184 11.7063 19.3184C11.7063 19.3184 11.7063 17.0059 12.0147 15.9268C12.1688 15.3101 12.657 14.8219 13.248 14.6677C14.3529 14.3594 18.7466 14.3594 18.7466 14.3594C18.7466 14.3594 23.1147 14.3594 24.2195 14.6677C24.8105 14.8219 25.2987 15.3101 25.4529 15.9268ZM17.3077 21.3997L20.9563 19.3184L17.3077 17.2372V21.3997Z" fill="#15284C"/>
</svg>
