<svg width="38" height="38" viewBox="0 0 38 38" fill="none" xmlns="http://www.w3.org/2000/svg">
<rect x="0.80957" y="0.714844" width="37" height="37" rx="18.5" fill="white"/>
<path d="M19.4588 16.3378C21.0775 16.3378 22.4136 17.6739 22.4136 19.2926C22.4136 20.9371 21.0775 22.2475 19.4588 22.2475C17.8143 22.2475 16.5039 20.9371 16.5039 19.2926C16.5039 17.6739 17.8143 16.3378 19.4588 16.3378ZM19.4588 21.2197C20.5123 21.2197 21.3602 20.3718 21.3602 19.2926C21.3602 18.2391 20.5123 17.3912 19.4588 17.3912C18.3796 17.3912 17.5317 18.2391 17.5317 19.2926C17.5317 20.3718 18.4053 21.2197 19.4588 21.2197ZM23.2102 16.235C23.2102 16.6204 22.9018 16.9287 22.5164 16.9287C22.131 16.9287 21.8227 16.6204 21.8227 16.235C21.8227 15.8496 22.131 15.5412 22.5164 15.5412C22.9018 15.5412 23.2102 15.8496 23.2102 16.235ZM25.1629 16.9287C25.2143 17.8794 25.2143 20.7315 25.1629 21.6822C25.1116 22.6072 24.906 23.4037 24.2379 24.0975C23.5699 24.7655 22.7477 24.9711 21.8227 25.0225C20.872 25.0739 18.0199 25.0739 17.0692 25.0225C16.1442 24.9711 15.3477 24.7655 14.6539 24.0975C13.9859 23.4037 13.7803 22.6072 13.7289 21.6822C13.6775 20.7315 13.6775 17.8794 13.7289 16.9287C13.7803 16.0037 13.9859 15.1815 14.6539 14.5135C15.3477 13.8454 16.1442 13.6398 17.0692 13.5885C18.0199 13.5371 20.872 13.5371 21.8227 13.5885C22.7477 13.6398 23.5699 13.8454 24.2379 14.5135C24.906 15.1815 25.1116 16.0037 25.1629 16.9287ZM23.9296 22.6843C24.2379 21.9391 24.1609 20.1405 24.1609 19.2926C24.1609 18.4704 24.2379 16.6718 23.9296 15.901C23.7241 15.4128 23.3386 15.0016 22.8504 14.8218C22.0796 14.5135 20.281 14.5905 19.4588 14.5905C18.6109 14.5905 16.8123 14.5135 16.0671 14.8218C15.5532 15.0273 15.1678 15.4128 14.9623 15.901C14.6539 16.6718 14.731 18.4704 14.731 19.2926C14.731 20.1405 14.6539 21.9391 14.9623 22.6843C15.1678 23.1982 15.5532 23.5836 16.0671 23.7891C16.8123 24.0975 18.6109 24.0204 19.4588 24.0204C20.281 24.0204 22.0796 24.0975 22.8504 23.7891C23.3386 23.5836 23.7498 23.1982 23.9296 22.6843Z" fill="#15284C"/>
</svg>
