<svg width="38" height="38" viewBox="0 0 38 38" fill="none" xmlns="http://www.w3.org/2000/svg">
<rect x="0.965332" y="0.714844" width="37" height="37" rx="18.5" fill="white"/>
<path d="M16.4284 24.2261H14.0388V16.5434H16.4284V24.2261ZM15.2208 15.5157C14.4757 15.5157 13.859 14.8733 13.859 14.1025C13.859 13.3573 14.4757 12.7407 15.2208 12.7407C15.9916 12.7407 16.6083 13.3573 16.6083 14.1025C16.6083 14.8733 15.9916 15.5157 15.2208 15.5157ZM25.3444 24.2261H22.9805V20.5004C22.9805 19.6011 22.9548 18.4705 21.7215 18.4705C20.4882 18.4705 20.3083 19.4212 20.3083 20.4233V24.2261H17.9187V16.5434H20.2055V17.5969H20.2312C20.5652 17.0059 21.3361 16.3636 22.4923 16.3636C24.9076 16.3636 25.3701 17.9566 25.3701 20.0122V24.2261H25.3444Z" fill="#15284C"/>
</svg>
