<svg width="38" height="38" viewBox="0 0 38 38" fill="none" xmlns="http://www.w3.org/2000/svg">
<rect x="0.387695" y="0.714844" width="37" height="37" rx="18.5" fill="white"/>
<path d="M24.2631 16.6203C24.2631 16.7487 24.2631 16.8515 24.2631 16.98C24.2631 20.5515 21.5652 24.6369 16.6062 24.6369C15.0645 24.6369 13.6513 24.2001 12.4694 23.4293C12.6749 23.455 12.8805 23.4807 13.1117 23.4807C14.3708 23.4807 15.527 23.0439 16.452 22.3244C15.2701 22.2987 14.268 21.5279 13.9339 20.4487C14.1138 20.4744 14.268 20.5001 14.4478 20.5001C14.6791 20.5001 14.936 20.4487 15.1416 20.3974C13.9083 20.1404 12.9833 19.0612 12.9833 17.7508V17.7251C13.343 17.9307 13.7798 18.0335 14.2166 18.0592C13.4714 17.571 13.0089 16.7487 13.0089 15.8237C13.0089 15.3099 13.1374 14.8474 13.3687 14.4619C14.7048 16.0807 16.7089 17.1599 18.9444 17.2883C18.893 17.0828 18.8673 16.8772 18.8673 16.6717C18.8673 15.1814 20.0749 13.9737 21.5652 13.9737C22.336 13.9737 23.0298 14.2821 23.5437 14.8217C24.1346 14.6932 24.7256 14.4619 25.2395 14.1536C25.0339 14.796 24.6228 15.3099 24.0576 15.6439C24.5971 15.5925 25.1367 15.4383 25.5992 15.2328C25.2395 15.7724 24.777 16.2349 24.2631 16.6203Z" fill="#15284C"/>
</svg>
