<svg width="201" height="68" viewBox="0 0 201 68" fill="none" xmlns="http://www.w3.org/2000/svg">
<path d="M29.7098 19.5527L22.0038 36.9365L25.6273 34.2013L33.7957 28.0623L29.7098 19.5527ZM27.032 10.2043C26.767 10.2286 26.5124 10.2616 26.2439 10.2963C25.9425 10.3363 25.6429 10.3814 25.3432 10.4318C25.1596 10.4631 24.9743 10.4978 24.7907 10.5325C24.7726 10.5375 24.754 10.541 24.7353 10.5429C24.5448 10.5794 24.3525 10.6211 24.1672 10.6628C23.9818 10.7045 23.7827 10.7479 23.5904 10.7948C23.5904 10.7948 23.5904 10.7948 23.58 10.7948C23.3878 10.8416 23.199 10.8937 23.0067 10.9441C22.8144 10.9945 22.6343 11.0483 22.4524 11.1021H22.4109C22.2377 11.156 22.0489 11.2133 21.8722 11.2758C21.4929 11.3956 21.124 11.5241 20.7568 11.6613C20.5732 11.7308 20.3896 11.8003 20.2077 11.8732C19.8457 12.0174 19.4854 12.1702 19.1321 12.3282C18.4196 12.6524 17.7268 13.0061 17.0536 13.3893C16.8804 13.4848 16.7193 13.5821 16.5513 13.6845C16.4318 13.7557 16.3123 13.8287 16.2049 13.9016C15.9936 14.0353 15.7858 14.1673 15.5796 14.3028C15.4393 14.3948 15.2973 14.4903 15.1588 14.5876C14.8123 14.822 14.4902 15.0617 14.1646 15.3118C14.0104 15.4281 13.8597 15.5462 13.7073 15.6695C13.5549 15.7928 13.4025 15.9057 13.2535 16.0394C13.1357 16.1332 13.0231 16.2322 12.9071 16.3329C12.791 16.4337 12.6767 16.5326 12.5607 16.6334C11.2003 17.8572 9.97404 19.223 8.90257 20.7075C8.80904 20.8413 8.71378 20.9733 8.62198 21.1087C8.47822 21.3119 8.34139 21.5168 8.20629 21.7252L7.96033 22.1108C7.78713 22.3956 7.61392 22.6839 7.44072 22.9791C7.37317 23.0937 7.30735 23.2101 7.245 23.3264C7.18264 23.4428 7.12722 23.5383 7.07179 23.6425C6.98519 23.8161 6.89858 23.9724 6.81371 24.1392C6.72884 24.3059 6.64051 24.5021 6.54698 24.6862C6.45345 24.8703 6.37377 25.0335 6.30103 25.2176C5.94307 26.0105 5.62795 26.8221 5.35705 27.6489C5.30683 27.7879 5.26352 27.9303 5.21849 28.0727C5.20628 28.1051 5.19587 28.1381 5.18731 28.1717C5.13708 28.3297 5.09032 28.4895 5.04528 28.651C5.02623 28.7152 5.00718 28.7778 4.99159 28.8403C4.95175 28.9862 4.91365 29.132 4.87554 29.2796C4.86643 29.307 4.85891 29.3348 4.85303 29.363C4.81146 29.5262 4.77162 29.6912 4.73351 29.8562C4.71793 29.9187 4.70234 29.9847 4.68848 30.0525C4.6573 30.181 4.62959 30.3112 4.60361 30.4432C4.58456 30.5231 4.56897 30.6047 4.55338 30.6863C4.52567 30.8201 4.49969 30.9555 4.4789 31.091C4.46851 31.1396 4.45985 31.1865 4.44946 31.2334C4.41828 31.407 4.3871 31.5981 4.36112 31.7839C4.33861 31.9159 4.32129 32.0531 4.30223 32.1885C4.28318 32.324 4.26066 32.482 4.24508 32.6314C4.22256 32.805 4.20351 32.9787 4.18792 33.1524C4.17233 33.326 4.15328 33.4997 4.14115 33.6734C4.13937 33.7075 4.13937 33.7417 4.14115 33.7758C4.1221 33.9877 4.10997 34.1961 4.09958 34.408C4.0788 34.8439 4.06494 35.2867 4.06494 35.7278C4.06494 35.9727 4.06494 36.2158 4.0788 36.459C4.0788 36.6482 4.08746 36.8358 4.09958 37.0251C4.09714 37.0418 4.09714 37.0588 4.09958 37.0755C4.09958 37.2839 4.1221 37.4957 4.13769 37.7041C4.14981 37.8778 4.1654 38.0515 4.18272 38.2251C4.18272 38.3067 4.19831 38.3884 4.20697 38.4683C4.21909 38.5968 4.23641 38.727 4.252 38.8573L4.28838 39.1629C4.36112 39.7013 4.44946 40.231 4.55338 40.7572C4.5759 40.8735 4.60188 40.9899 4.62613 41.1045C4.66077 41.2677 4.69541 41.4327 4.73351 41.5942C4.77162 41.7557 4.82185 41.9607 4.86862 42.143C4.91538 42.3254 4.96388 42.5042 5.01411 42.6814C5.17172 43.2475 5.35186 43.8067 5.54758 44.3538C5.60127 44.5048 5.65497 44.6542 5.71039 44.8018L5.8836 45.2447C5.94249 45.394 6.00311 45.5381 6.05681 45.684L6.24733 46.1199C6.30969 46.2658 6.3755 46.4082 6.44132 46.5506C6.50714 46.693 6.59721 46.8788 6.67515 47.0403C6.80159 47.2922 6.92803 47.5457 7.05967 47.7923C7.13934 47.9417 7.21728 48.0858 7.30042 48.2317C7.38356 48.3776 7.45457 48.5043 7.53252 48.6398C7.69013 48.9107 7.85468 49.1834 8.02096 49.4491C8.10583 49.5776 8.19416 49.7078 8.27384 49.8381C8.35351 49.9683 8.44704 50.0969 8.53538 50.2271L27.1463 10.1921C27.108 10.1936 27.0698 10.1977 27.032 10.2043ZM55.2472 35.1026C55.2472 34.8942 55.2403 34.6858 55.2264 34.4774C55.2125 34.2742 55.2039 34.0728 55.1883 33.8696C55.1727 33.6664 55.1571 33.458 55.1381 33.2566C55.1 32.8519 55.0497 32.4473 54.9926 32.0496C54.9666 31.8655 54.9389 31.6849 54.9112 31.506C54.9036 31.4746 54.8984 31.4427 54.8956 31.4105C54.8627 31.2247 54.828 31.0406 54.7934 30.8565C54.7587 30.6724 54.7154 30.4623 54.6739 30.2661C54.6323 30.0698 54.5855 29.8771 54.5422 29.6843C54.4989 29.4915 54.4435 29.2953 54.3933 29.1025C54.3431 28.9097 54.2894 28.7204 54.2357 28.5311C54.182 28.3419 54.1231 28.1508 54.0625 27.9615C53.9429 27.5864 53.8165 27.213 53.6814 26.8466C53.5463 26.4802 53.4008 26.1103 53.2484 25.749C52.8721 24.8579 52.4471 23.9883 51.9753 23.1441C51.9753 23.1319 51.9597 23.1198 51.9528 23.1059C51.8593 22.9461 51.7675 22.7811 51.6705 22.6196C51.4719 22.2873 51.2669 21.9585 51.0556 21.6332C50.9482 21.4717 50.8408 21.3119 50.73 21.1539C50.6191 20.9958 50.51 20.8378 50.3957 20.6798C50.2814 20.5217 50.1688 20.3689 50.0493 20.2143C49.9298 20.0598 49.812 19.907 49.6925 19.7559C49.573 19.6048 49.4535 19.4554 49.3305 19.3078C49.0811 19.0091 48.8299 18.7191 48.5701 18.4395C48.3103 18.1599 48.0505 17.8733 47.7734 17.6024C47.6383 17.467 47.5014 17.3298 47.3629 17.1978C47.2243 17.0658 47.0823 16.9321 46.9402 16.8018C46.7982 16.6716 46.6822 16.5656 46.5505 16.4545C46.4189 16.3433 46.2353 16.1784 46.0742 16.0464C45.778 15.7963 45.4749 15.5566 45.1684 15.3222C45.0246 15.2076 44.8756 15.0982 44.7249 14.9905L44.6799 14.9558C44.5362 14.8481 44.3837 14.7439 44.2365 14.6397C44.0893 14.5355 43.9178 14.4209 43.7567 14.3132C43.5956 14.2055 43.4346 14.1048 43.2735 14.0006H43.2614C43.1003 13.8999 42.9375 13.7992 42.7729 13.7019C42.6084 13.6047 42.4421 13.5022 42.2724 13.4067C42.1026 13.3112 41.9259 13.2104 41.7527 13.1167C41.5795 13.0229 41.4219 12.943 41.2539 12.8544C41.0859 12.7659 40.9075 12.6808 40.7343 12.5957L40.2043 12.3456C39.8579 12.1875 39.4924 12.0347 39.1304 11.8906C38.9468 11.8176 38.7632 11.7482 38.5813 11.6787C38.2118 11.5409 37.84 11.4124 37.4659 11.2932C37.2927 11.2359 37.1056 11.1786 36.9255 11.1195H36.8857C36.6986 11.0657 36.5167 11.0118 36.3297 10.9615C36.1426 10.9111 35.9486 10.859 35.7564 10.8121C35.7564 10.8121 35.7564 10.8121 35.7477 10.8121C35.5554 10.7652 35.3615 10.7201 35.1692 10.6801C34.9769 10.6402 34.7916 10.5968 34.6028 10.5603C34.5835 10.5585 34.5644 10.555 34.5457 10.5499C34.3638 10.5152 34.1767 10.4804 33.9949 10.4492C33.6952 10.3988 33.3956 10.3536 33.0925 10.3137C32.8309 10.279 32.5728 10.2494 32.3044 10.2217C32.2666 10.215 32.2284 10.211 32.1901 10.2095L41.635 30.5283L29.708 39.0987L29.6699 39.0691L24.5846 42.7803L10.6745 52.9241C11.1133 53.4104 11.5705 53.8804 12.0463 54.3343C12.2039 54.4854 12.3632 54.633 12.5278 54.7789C12.6923 54.9247 12.8517 55.0706 13.0197 55.213C13.1877 55.3554 13.3505 55.4961 13.5202 55.6333C13.69 55.7705 13.8233 55.8799 13.9775 55.9962C14.0347 56.0431 14.0918 56.0883 14.1507 56.1317C14.2581 56.2139 14.3655 56.2938 14.4729 56.3714C14.7067 56.545 14.9457 56.7187 15.1882 56.8837C15.3106 56.9693 15.4336 57.0527 15.5571 57.1338C15.6074 57.1685 15.6611 57.2032 15.7113 57.2345C15.8065 57.2987 15.9018 57.3578 15.9953 57.4186C16.1218 57.5002 16.2482 57.5801 16.3764 57.6547C16.5046 57.7294 16.6414 57.8163 16.7748 57.8927C16.9081 57.9691 17.0554 58.0663 17.1974 58.1358C17.4295 58.2695 17.6702 58.398 17.9093 58.5213C18.0444 58.5943 18.1795 58.6603 18.3163 58.7263C18.4012 58.7714 18.4895 58.8131 18.5709 58.853C19.3157 59.2143 20.0807 59.539 20.8659 59.8273C21.0616 59.9002 21.2573 59.9697 21.4565 60.0357C21.6159 60.093 21.7769 60.1434 21.9415 60.1937C22.106 60.2441 22.2567 60.2944 22.4143 60.3396C22.5338 60.3778 22.6568 60.4125 22.7798 60.4438C22.9825 60.5028 23.1834 60.5567 23.3878 60.6053C23.4951 60.6366 23.606 60.6609 23.7168 60.6869C23.8277 60.713 23.9022 60.7304 23.9974 60.7529C24.0927 60.7755 24.2399 60.8068 24.3629 60.8328C24.4859 60.8589 24.5829 60.8797 24.6937 60.8988C24.8825 60.9405 25.0713 60.9752 25.2636 61.0065C25.4247 61.0343 25.5857 61.0638 25.7503 61.0846C25.7748 61.0909 25.7996 61.0956 25.8248 61.0985C25.9737 61.1194 26.1244 61.1419 26.2768 61.161C26.4622 61.1871 26.6509 61.2114 26.8397 61.2305H26.8934C27.0424 61.2461 27.1931 61.2618 27.3455 61.2705C27.4494 61.2843 27.5568 61.293 27.6607 61.3L27.8339 61.3121C28.0071 61.3243 28.1804 61.3382 28.3536 61.3434C28.79 61.3654 29.2294 61.377 29.6716 61.3781C30.1133 61.3781 30.555 61.366 30.9897 61.3434C31.163 61.3434 31.3362 61.3243 31.5094 61.3121L31.6826 61.3C31.7865 61.3 31.8939 61.2843 31.9978 61.2705C32.1485 61.2618 32.3009 61.2461 32.4481 61.2305H32.5018C32.6906 61.2114 32.8794 61.1871 33.0665 61.161C33.2172 61.1419 33.3696 61.1194 33.5168 61.0985C33.5425 61.0956 33.568 61.0909 33.593 61.0846C33.7558 61.0638 33.9169 61.0343 34.078 61.0065C34.2703 60.9752 34.4591 60.9405 34.6496 60.8988C34.7587 60.8797 34.8696 60.8571 34.9804 60.8328C35.0913 60.8085 35.2264 60.7824 35.3459 60.7529C35.4394 60.7304 35.5312 60.713 35.6265 60.6869C35.7217 60.6609 35.8464 60.6366 35.9538 60.6053C36.1582 60.5567 36.3609 60.5028 36.5618 60.4438C36.6847 60.4125 36.8077 60.3778 36.9272 60.3396C37.0849 60.2944 37.2425 60.2441 37.4001 60.1937C37.5577 60.1434 37.7257 60.093 37.8868 60.0357C38.0842 59.9697 38.28 59.9002 38.4757 59.8273C39.2564 59.5412 40.0224 59.216 40.7707 58.853C40.8469 58.8183 40.9231 58.7801 40.9941 58.7436C41.292 58.5977 41.5853 58.4455 41.874 58.2869L42.1459 58.1358C42.2879 58.0577 42.43 57.9778 42.5685 57.8927C42.7989 57.7607 43.0275 57.62 43.2614 57.4793C43.412 57.3838 43.5627 57.2866 43.7117 57.1876C43.8607 57.0886 44.0235 56.9792 44.1776 56.875L44.3387 56.7604C44.4894 56.6562 44.6418 56.5468 44.789 56.4391C44.9622 56.3088 45.1354 56.1769 45.3086 56.0431C45.6551 55.774 46.0015 55.4961 46.3254 55.213C46.4899 55.0706 46.6545 54.9247 46.8173 54.7789C47.1394 54.4854 47.4581 54.1849 47.7664 53.8758C48.0747 53.5667 48.3744 53.2489 48.6688 52.9241L38.6246 45.6024L43.9403 35.4934L50.775 50.2149C50.8945 50.0413 51.014 49.8572 51.1214 49.6766C51.1872 49.5759 51.2548 49.4717 51.3172 49.3675C51.3795 49.2633 51.4488 49.1643 51.5094 49.0601L51.6826 48.7562C51.7796 48.5964 51.8749 48.4349 51.9667 48.2699C52.0758 48.0737 52.1832 47.8757 52.2906 47.676C52.3979 47.4762 52.4949 47.28 52.5902 47.0786C52.6439 46.9744 52.6941 46.8736 52.7409 46.7694C52.8327 46.5853 52.9141 46.4013 53.0007 46.2154C53.0475 46.1112 53.0942 46.007 53.1393 45.8994C53.1606 45.8542 53.1791 45.8078 53.1947 45.7604C53.2553 45.625 53.3159 45.486 53.3679 45.3471C53.4458 45.163 53.5186 44.9772 53.5879 44.7897C53.6416 44.642 53.6987 44.4927 53.7524 44.3416C53.9637 43.7442 54.156 43.1259 54.3257 42.5181C54.3673 42.3618 54.4071 42.2073 54.4487 42.0492C54.4903 41.8912 54.5249 41.7366 54.5613 41.5821C54.634 41.2695 54.7033 40.9534 54.7639 40.6339C54.8246 40.3143 54.88 39.9948 54.9371 39.6717C54.9943 39.3487 55.0324 39.024 55.0705 38.6992C55.1086 38.3745 55.1398 38.0445 55.164 37.7163C55.1779 37.5513 55.1866 37.3863 55.197 37.2196C55.2073 37.0529 55.2125 36.9122 55.2177 36.7611C55.2195 36.7357 55.2195 36.7102 55.2177 36.6847C55.2177 36.5249 55.2281 36.3634 55.2333 36.2019C55.2385 36.0404 55.2333 35.8789 55.2333 35.7174C55.2541 35.516 55.2506 35.3076 55.2472 35.1026Z" fill="url(#paint0_linear_3446_617)"/>
<path d="M63.2041 38.5978L67.5117 16.29H74.2668L78.493 38.6026H73.2015L72.4654 34.4838H68.9753L68.2825 38.5978H63.2041ZM69.0567 32.294H72.4308L70.7628 20.174L69.0567 32.294Z" fill="#072060"/>
<path d="M80.5176 38.5978V16.29H84.6226L89.623 29.805V16.29H93.7695V38.5978H89.6646L84.6659 25.9886V38.5978H80.5176Z" fill="#072060"/>
<path d="M95.7598 38.5978L100.067 16.29H106.822L111.049 38.6026H105.766L105.028 34.4838H101.531L100.838 38.5978H95.7598ZM101.612 32.294H104.986L103.318 20.174L101.612 32.294Z" fill="#072060"/>
<path d="M112.261 38.5978V16.29H116.938V35.5779H122.383V38.5978H112.261Z" fill="#072060"/>
<path d="M130.794 39.0516C129.612 39.0702 128.434 38.9237 127.299 38.6171C126.8 38.4729 126.337 38.2386 125.936 37.9277C125.535 37.6168 125.204 37.2354 124.962 36.8055C124.405 35.8873 124.128 34.5219 124.129 32.7092V21.0042C124.129 19.671 124.407 18.6391 124.962 17.9087C125.538 17.1653 126.37 16.6263 127.319 16.3802C128.462 16.0745 129.647 15.9281 130.835 15.9458C132.012 15.9295 133.184 16.082 134.31 16.3979C135.268 16.6624 136.108 17.2055 136.709 17.9473C137.286 18.6777 137.575 19.6967 137.575 21.0042V32.6706C137.575 34.5079 137.286 35.8863 136.709 36.8055C136.192 37.675 135.332 38.3245 134.31 38.6171C133.168 38.9229 131.983 39.0693 130.794 39.0516ZM130.794 36.4773C131.163 36.484 131.53 36.4199 131.871 36.289C132.192 36.1558 132.451 35.9216 132.604 35.6278C132.8 35.2189 132.89 34.7732 132.867 34.3261V20.8112C132.89 20.3636 132.8 19.9174 132.604 19.5079C132.451 19.2149 132.191 18.9814 131.871 18.8483C131.53 18.7169 131.163 18.6522 130.794 18.6584C130.431 18.651 130.071 18.7157 129.737 18.8483C129.426 18.9859 129.175 19.2189 129.027 19.5079C128.83 19.917 128.739 20.3635 128.762 20.8112V34.3261C128.739 34.7733 128.83 35.2193 129.027 35.6278C129.175 35.9177 129.426 36.1513 129.737 36.289C130.07 36.4232 130.431 36.4896 130.794 36.4837V36.4773Z" fill="#072060"/>
<path d="M145.75 39.0147C144.87 39.0208 143.996 38.8797 143.169 38.598C142.371 38.3223 141.714 37.7753 141.198 36.9569C140.682 36.1385 140.425 34.9114 140.426 33.2757V21.0478C140.426 19.7393 140.703 18.7203 141.259 17.9909C141.831 17.2513 142.655 16.7127 143.597 16.4624C144.732 16.1555 145.911 16.009 147.092 16.028C148.281 16.0104 149.466 16.1568 150.609 16.4624C151.565 16.7137 152.406 17.2481 153.006 17.9845C153.583 18.7149 153.872 19.7339 153.872 21.0414V24.174H149.287V20.8162C149.287 20.2128 149.199 19.7527 149.024 19.4389C148.881 19.1537 148.627 18.9301 148.312 18.8147C147.958 18.7065 147.586 18.6553 147.214 18.6634C146.848 18.6581 146.484 18.7093 146.136 18.8147C145.813 18.9248 145.551 19.1492 145.405 19.4389C145.232 19.7607 145.14 20.2128 145.14 20.8162V34.3311C145.14 34.9104 145.229 35.356 145.405 35.6714C145.554 35.9635 145.814 36.1932 146.136 36.3149C146.482 36.4301 146.847 36.4846 147.214 36.4758C147.49 36.4875 147.765 36.4467 148.024 36.3559C148.282 36.2652 148.518 36.1264 148.717 35.9481C149.096 35.5963 149.286 35.0552 149.287 34.3247V29.8776H147.337V27.3918H153.88V38.6044H150.344L150.099 36.8684C150.046 36.944 149.992 37.0197 149.937 37.0953C149.893 37.156 149.852 37.2189 149.815 37.2835C149.472 37.7762 149.004 38.1841 148.454 38.4725C147.816 38.834 146.915 39.0147 145.75 39.0147Z" fill="#072060"/>
<path d="M163.147 39.0515C162.249 39.0571 161.352 38.9941 160.464 38.8633C159.703 38.7558 158.979 38.4842 158.351 38.0701C157.755 37.6678 157.293 37.0699 156.966 36.2761C156.638 35.4824 156.475 34.4065 156.477 33.0486V16.29H161.193V34.2939C161.172 34.7294 161.262 35.1633 161.457 35.5601C161.599 35.845 161.854 36.068 162.169 36.1828C162.482 36.2856 162.812 36.3368 163.144 36.334C163.463 36.3345 163.779 36.2833 164.079 36.1828C164.393 36.0674 164.647 35.8445 164.789 35.5601C164.984 35.1635 165.075 34.7295 165.054 34.2939V16.29H169.772V33.0486C169.772 34.3819 169.61 35.4545 169.284 36.2665C168.958 37.0784 168.504 37.6823 167.923 38.0781C167.297 38.4963 166.572 38.7684 165.809 38.8713C164.929 38.9979 164.038 39.0582 163.147 39.0515Z" fill="#072060"/>
<path d="M173.098 38.5978V16.29H184.153V19.3856H178.015V25.3515H183.211V28.7866H178.015V35.5827H184.153V38.6026L173.098 38.5978Z" fill="#072060"/>
<path d="M64.7336 51.788H63.6943V44.7312H64.7336V51.788Z" fill="#072060"/>
<path d="M71.7015 45.534H69.2056V51.7879H68.1664V45.534H65.6636V44.7295H71.7015V45.534Z" fill="#072060"/>
<path d="M80.5126 45.835C80.4852 45.8778 80.4494 45.9155 80.407 45.946C80.3664 45.9706 80.3186 45.9829 80.2701 45.9814C80.1912 45.975 80.1162 45.9464 80.0554 45.8993C79.9558 45.8323 79.8523 45.7705 79.7453 45.7143C79.6033 45.639 79.4536 45.5771 79.2984 45.5293C79.0942 45.469 78.8805 45.4407 78.6662 45.4456C78.4571 45.4424 78.2487 45.4712 78.0496 45.5309C77.886 45.5822 77.7344 45.6619 77.6028 45.7658C77.4855 45.8614 77.3926 45.9802 77.3308 46.1133C77.2698 46.2494 77.2391 46.3955 77.2408 46.5429C77.2332 46.7182 77.2886 46.8908 77.3984 47.0336C77.5124 47.17 77.6557 47.2829 77.8193 47.3651C78.0068 47.4636 78.2047 47.5439 78.4099 47.6048L79.0889 47.8139C79.321 47.8863 79.5461 47.9668 79.7661 48.0569C79.9805 48.1436 80.1801 48.2591 80.3585 48.3996C80.5349 48.5397 80.6782 48.7123 80.7794 48.9064C80.8916 49.1383 80.9455 49.3908 80.937 49.6449C80.9386 49.9426 80.8798 50.2379 80.7638 50.5153C80.6521 50.7816 80.4803 51.0225 80.2597 51.2216C80.0268 51.4291 79.7503 51.5896 79.4474 51.6931C79.0973 51.8137 78.7261 51.8726 78.3527 51.8668C77.8835 51.8727 77.4181 51.7878 76.9861 51.6174C76.5908 51.4617 76.2337 51.2329 75.9365 50.9449L76.2379 50.4928C76.2664 50.4567 76.3016 50.4257 76.3418 50.4011C76.3832 50.3766 76.4313 50.3638 76.4804 50.3641C76.537 50.3678 76.5914 50.3856 76.638 50.4156C76.6969 50.451 76.7644 50.4944 76.8407 50.5459C76.9151 50.599 77.0017 50.6569 77.0987 50.7197C77.2039 50.7852 77.3145 50.8427 77.4296 50.8918C77.5658 50.9472 77.7073 50.9908 77.8522 51.0221C78.0273 51.0579 78.2063 51.0752 78.3856 51.0736C78.6103 51.0771 78.8339 51.0455 79.0473 50.9803C79.2286 50.9238 79.3959 50.8341 79.5392 50.7164C79.6734 50.6042 79.7793 50.4657 79.8492 50.311C79.9226 50.1435 79.9591 49.9641 79.9566 49.7833C79.965 49.5971 79.9091 49.4134 79.7973 49.2588C79.6861 49.1186 79.5437 49.0022 79.3799 48.9177C79.1932 48.8189 78.995 48.7401 78.7892 48.6828L78.1103 48.4865C77.8804 48.4187 77.6544 48.3403 77.433 48.2516C77.2167 48.1675 77.0166 48.0512 76.8407 47.9073C76.6629 47.7601 76.5206 47.5797 76.4232 47.3779C76.2591 47.0215 76.2156 46.6272 76.2985 46.2472C76.3814 45.8673 76.5868 45.5198 76.8874 45.2509C77.1043 45.063 77.3584 44.916 77.6357 44.8181C77.9618 44.7055 78.3079 44.6509 78.6558 44.6572C79.0568 44.6528 79.4553 44.716 79.8319 44.8439C80.1786 44.9656 80.4959 45.1498 80.7655 45.3861L80.5126 45.835Z" fill="#072060"/>
<path d="M85.7378 46.7198C86.1059 46.7145 86.4714 46.7769 86.8134 46.9032C87.1234 47.0185 87.4029 47.1946 87.6327 47.4197C87.8644 47.6513 88.0414 47.9253 88.1523 48.2242C88.3948 48.9142 88.3948 49.6579 88.1523 50.3479C88.0414 50.6468 87.8644 50.9208 87.6327 51.1524C87.4033 51.3774 87.1237 51.5532 86.8134 51.6673C86.4707 51.791 86.1055 51.8521 85.7378 51.8475C85.3673 51.8523 84.9993 51.7911 84.6536 51.6673C84.3424 51.554 84.062 51.3782 83.8326 51.1524C83.6005 50.9211 83.4235 50.647 83.313 50.3479C83.0728 49.6576 83.0728 48.9145 83.313 48.2242C83.4235 47.9251 83.6005 47.651 83.8326 47.4197C84.0624 47.1939 84.3426 47.0177 84.6536 46.9032C84.9986 46.7767 85.367 46.7144 85.7378 46.7198ZM85.7378 51.1717C86.2765 51.1717 86.6766 51.0108 86.9503 50.6778C87.2239 50.3447 87.3487 49.8862 87.3487 49.2957C87.3487 48.7052 87.2153 48.2386 86.9503 47.9072C86.6853 47.5758 86.2834 47.41 85.7378 47.41C85.4927 47.4043 85.2492 47.4482 85.0242 47.5387C84.8256 47.621 84.6519 47.7476 84.5185 47.9072C84.3752 48.0837 84.2726 48.2859 84.2171 48.5009C84.148 48.7609 84.1148 49.0279 84.1184 49.2957C84.1184 49.8862 84.2517 50.3479 84.5185 50.6778C84.7852 51.0076 85.1922 51.1717 85.7378 51.1717Z" fill="#072060"/>
<path d="M91.8245 44.5347V51.7877H90.8667V44.5347H91.8245Z" fill="#072060"/>
<path d="M99.579 46.8003V51.788H99.0091C98.9496 51.7922 98.8905 51.776 98.843 51.7425C98.7954 51.709 98.7627 51.6605 98.7511 51.6062L98.6749 51.0688C98.4475 51.3022 98.1785 51.4976 97.8798 51.6464C97.5671 51.7971 97.2188 51.8729 96.8666 51.8668C96.5968 51.8716 96.3287 51.8257 96.0785 51.7317C95.8577 51.6459 95.6606 51.515 95.5017 51.3487C95.3418 51.1755 95.2237 50.9726 95.1553 50.7534C95.0749 50.5024 95.0358 50.2415 95.0393 49.9795V46.8003H95.9971V49.9795C95.976 50.2937 96.0761 50.6046 96.2794 50.8564C96.3893 50.9654 96.5242 51.05 96.6742 51.1037C96.8241 51.1575 96.9852 51.1791 97.1455 51.1669C97.4225 51.1687 97.6955 51.105 97.9387 50.9819C98.1959 50.8507 98.4263 50.6786 98.6194 50.4735V46.8003H99.579Z" fill="#072060"/>
<path d="M104.063 51.8667C103.882 51.8775 103.7 51.8538 103.529 51.7971C103.358 51.7404 103.202 51.6518 103.069 51.5369C102.947 51.4073 102.853 51.2566 102.794 51.0935C102.734 50.9303 102.71 50.7579 102.722 50.586V47.5291H102.066C102.013 47.5309 101.961 47.5142 101.921 47.4824C101.9 47.464 101.883 47.4414 101.873 47.4163C101.863 47.3912 101.859 47.3643 101.862 47.3376V46.9885L102.755 46.8839L102.975 45.3441C102.984 45.2973 103.01 45.2547 103.048 45.2235C103.089 45.1908 103.142 45.1741 103.195 45.1768H103.68V46.8951H105.256V47.5291H103.68V50.5233C103.674 50.6081 103.686 50.6933 103.716 50.7738C103.745 50.8542 103.792 50.9283 103.853 50.9915C103.911 51.0426 103.978 51.0825 104.052 51.1088C104.126 51.135 104.206 51.1471 104.285 51.1443C104.374 51.1457 104.462 51.1332 104.546 51.1073C104.613 51.0861 104.677 51.0586 104.737 51.0253C104.791 50.9963 104.836 50.9689 104.874 50.9448C104.903 50.9236 104.937 50.9107 104.974 50.9078C105.002 50.9098 105.029 50.9186 105.053 50.9333C105.076 50.9479 105.095 50.968 105.108 50.9915L105.388 51.4098C105.215 51.5564 105.011 51.6696 104.791 51.7428C104.558 51.8247 104.312 51.8667 104.063 51.8667Z" fill="#072060"/>
<path d="M109.285 45.2332C109.286 45.3161 109.266 45.3981 109.228 45.473C109.191 45.5463 109.14 45.6128 109.077 45.6693C109.014 45.7276 108.94 45.7736 108.857 45.8044C108.773 45.8379 108.682 45.8549 108.591 45.8543C108.501 45.8552 108.411 45.8382 108.329 45.8044C108.25 45.7727 108.178 45.7267 108.118 45.6693C108.056 45.613 108.007 45.5464 107.972 45.473C107.936 45.3976 107.918 45.3158 107.918 45.2332C107.918 45.1497 107.936 45.0669 107.972 44.9903C108.006 44.9145 108.055 44.8456 108.118 44.7876C108.179 44.7311 108.25 44.6853 108.329 44.6524C108.412 44.6194 108.501 44.6024 108.591 44.6025C108.682 44.6026 108.773 44.6196 108.857 44.6524C109.023 44.7161 109.156 44.8373 109.228 44.9903C109.266 45.0664 109.285 45.1494 109.285 45.2332ZM109.081 46.8003V51.788H108.123V46.8003H109.081Z" fill="#072060"/>
<path d="M114.457 46.7198C114.825 46.7145 115.191 46.7769 115.533 46.9032C115.843 47.0185 116.122 47.1946 116.352 47.4197C116.584 47.6513 116.761 47.9253 116.872 48.2242C117.114 48.9142 117.114 49.6579 116.872 50.3479C116.761 50.6468 116.584 50.9208 116.352 51.1524C116.123 51.3774 115.843 51.5532 115.533 51.6673C115.19 51.791 114.825 51.8521 114.457 51.8475C114.087 51.8523 113.719 51.7911 113.373 51.6673C113.062 51.554 112.781 51.3782 112.552 51.1524C112.32 50.9211 112.143 50.647 112.032 50.3479C111.792 49.6576 111.792 48.9145 112.032 48.2242C112.143 47.9251 112.32 47.651 112.552 47.4197C112.782 47.1939 113.062 47.0177 113.373 46.9032C113.718 46.7767 114.086 46.7144 114.457 46.7198ZM114.457 51.1717C114.996 51.1717 115.396 51.0108 115.67 50.6778C115.943 50.3447 116.068 49.8862 116.068 49.2957C116.068 48.7052 115.935 48.2386 115.67 47.9072C115.405 47.5758 115.003 47.41 114.457 47.41C114.212 47.4043 113.968 47.4482 113.743 47.5387C113.545 47.621 113.371 47.7476 113.238 47.9072C113.094 48.0837 112.992 48.2859 112.936 48.5009C112.867 48.7609 112.834 49.0279 112.838 49.2957C112.838 49.8862 112.971 50.3479 113.238 50.6778C113.504 51.0076 113.911 51.1717 114.457 51.1717Z" fill="#072060"/>
<path d="M120.672 47.5227C120.788 47.4037 120.914 47.2935 121.049 47.1929C121.181 47.0959 121.322 47.0113 121.472 46.9403C121.622 46.8694 121.781 46.8154 121.945 46.7794C122.122 46.7397 122.304 46.7203 122.487 46.7215C122.757 46.7171 123.025 46.7637 123.275 46.8582C123.494 46.9429 123.69 47.074 123.845 47.2411C124.003 47.4165 124.121 47.6202 124.191 47.8397C124.274 48.0904 124.314 48.3514 124.311 48.6136V51.7896H123.348V48.612C123.369 48.2973 123.269 47.986 123.065 47.7335C122.956 47.6233 122.822 47.5378 122.672 47.4834C122.521 47.429 122.36 47.4072 122.199 47.4197C121.922 47.4186 121.649 47.4828 121.406 47.6064C121.15 47.7391 120.92 47.911 120.725 48.1148V51.788H119.768V46.8003H120.344C120.403 46.7951 120.463 46.811 120.509 46.8448C120.556 46.8785 120.588 46.9276 120.597 46.9821L120.672 47.5227Z" fill="#072060"/>
<path d="M130.456 47.6223C130.438 47.6564 130.409 47.6848 130.374 47.704C130.338 47.7231 130.298 47.7322 130.257 47.7301C130.195 47.7258 130.135 47.707 130.084 47.6754C130.014 47.64 129.931 47.5998 129.832 47.5548C129.72 47.5059 129.605 47.465 129.486 47.4325C129.328 47.3918 129.165 47.3729 129.001 47.3762C128.853 47.3739 128.706 47.3929 128.565 47.4325C128.445 47.4671 128.333 47.5216 128.234 47.5934C128.147 47.6542 128.075 47.7323 128.024 47.8218C127.976 47.9094 127.951 48.0065 127.951 48.105C127.947 48.2226 127.99 48.3374 128.073 48.4268C128.163 48.5185 128.272 48.5933 128.393 48.6472C128.539 48.7125 128.69 48.7663 128.845 48.8081C129.018 48.8548 129.192 48.9063 129.365 48.9593C129.538 49.0124 129.711 49.0736 129.884 49.1396C130.046 49.2022 130.198 49.285 130.336 49.3857C130.469 49.4843 130.577 49.6077 130.655 49.7477C130.74 49.9075 130.782 50.0843 130.776 50.2626C130.779 50.4833 130.734 50.7023 130.643 50.9061C130.554 51.1011 130.417 51.2745 130.245 51.413C130.055 51.5633 129.835 51.678 129.599 51.7508C129.314 51.8375 129.015 51.8794 128.715 51.8747C128.36 51.8795 128.008 51.8216 127.676 51.7042C127.388 51.6029 127.122 51.4553 126.89 51.2682L127.117 50.9335C127.142 50.8938 127.177 50.8601 127.219 50.8354C127.264 50.8104 127.317 50.7982 127.369 50.8C127.443 50.8038 127.515 50.8279 127.574 50.8691C127.645 50.9158 127.731 50.9673 127.834 51.022C127.952 51.0853 128.078 51.1365 128.208 51.1748C128.386 51.2251 128.571 51.2485 128.757 51.244C128.923 51.2466 129.088 51.2243 129.247 51.1781C129.374 51.1392 129.491 51.078 129.593 50.9979C129.683 50.9269 129.754 50.8377 129.801 50.7372C129.847 50.6353 129.869 50.5257 129.867 50.4154C129.872 50.2916 129.83 50.1701 129.748 50.0727C129.658 49.9769 129.549 49.8982 129.427 49.841C129.281 49.7752 129.128 49.7214 128.972 49.6801C128.798 49.6335 128.625 49.5836 128.452 49.5305C128.279 49.4774 128.106 49.4179 127.932 49.3503C127.769 49.2868 127.616 49.2017 127.479 49.0977C127.345 48.9937 127.236 48.8649 127.158 48.7196C127.072 48.5498 127.03 48.3634 127.037 48.1758C127.037 47.9863 127.081 47.7991 127.167 47.6272C127.254 47.4492 127.383 47.291 127.543 47.1638C127.722 47.022 127.928 46.9128 128.151 46.842C128.416 46.7591 128.695 46.7188 128.975 46.7229C129.305 46.7202 129.632 46.7747 129.94 46.8838C130.214 46.9809 130.465 47.1256 130.681 47.3102L130.456 47.6223Z" fill="#072060"/>
<path d="M190.202 14.3131H189.506L189.043 13.2429C189.032 13.2132 189.01 13.1593 188.976 13.0813C188.946 12.9995 188.911 12.9085 188.87 12.8082C188.833 12.7041 188.794 12.5982 188.753 12.4904C188.712 12.3827 188.675 12.2842 188.642 12.195C188.642 12.2916 188.642 12.4031 188.642 12.5295C188.642 12.6558 188.642 12.784 188.642 12.9141C188.642 13.0441 188.64 13.1668 188.636 13.2819C188.636 13.3971 188.634 13.4882 188.63 13.5551L188.603 14.3131H187.755L187.978 10.5396H188.77L189.639 12.7134C189.665 12.7803 189.699 12.875 189.74 12.9977C189.784 13.1166 189.827 13.2466 189.868 13.3879C189.909 13.2504 189.95 13.1222 189.991 13.0033C190.035 12.8806 190.072 12.784 190.102 12.7134L190.972 10.5396H191.746L191.969 14.3131H191.105L191.072 13.5551C191.068 13.4845 191.064 13.3916 191.061 13.2764C191.061 13.1612 191.061 13.0404 191.061 12.9141C191.061 12.784 191.061 12.6558 191.061 12.5295C191.064 12.3994 191.066 12.2879 191.066 12.195C191.037 12.2731 191.003 12.3622 190.966 12.4626C190.933 12.5592 190.897 12.6539 190.86 12.7468C190.823 12.8397 190.788 12.9271 190.754 13.0088C190.721 13.0869 190.695 13.1482 190.676 13.1928L190.202 14.3131Z" fill="#072060"/>
<path d="M187.755 10.5396L187.638 11.214H186.769V14.3131H185.849V11.214H184.952V10.5396H187.755Z" fill="#072060"/>
<defs>
<linearGradient id="paint0_linear_3446_617" x1="11.5682" y1="17.5833" x2="47.8536" y2="53.7728" gradientUnits="userSpaceOnUse">
<stop offset="0.26" stop-color="#072060"/>
<stop offset="0.35" stop-color="#0B2563"/>
<stop offset="0.45" stop-color="#15326E"/>
<stop offset="0.56" stop-color="#26487F"/>
<stop offset="0.67" stop-color="#3F6796"/>
<stop offset="0.79" stop-color="#5E8FB5"/>
<stop offset="0.9" stop-color="#83BFDA"/>
<stop offset="1" stop-color="#A9EFFF"/>
</linearGradient>
</defs>
</svg>
